<?xml version="1.0" encoding="UTF-8" standalone="no"?>
<!DOCTYPE svg PUBLIC "-//W3C//DTD SVG 1.1//EN"
 "http://www.w3.org/Graphics/SVG/1.1/DTD/svg11.dtd">
<!-- Generated by graphviz version 2.43.0 (0)
 -->
<!-- Title: %3 Pages: 1 -->
<svg width="121pt" height="232pt"
 viewBox="0.00 0.00 121.00 231.58" xmlns="http://www.w3.org/2000/svg" xmlns:xlink="http://www.w3.org/1999/xlink">
<g id="graph0" class="graph" transform="scale(1 1) rotate(0) translate(4 227.58)">
<title>%3</title>
<polygon fill="white" stroke="transparent" points="-4,4 -4,-227.58 117,-227.58 117,4 -4,4"/>
<!-- 1 -->
<g id="node1" class="node">
<title>1</title>
<polygon fill="lightgray" stroke="black" points="23,-162.32 0,-162.32 0,-144.32 23,-144.32 23,-162.32"/>
<text text-anchor="middle" x="11.5" y="-151.12" font-family="Times,serif" font-size="9.00">1</text>
</g>
<!-- 4 -->
<g id="node4" class="node">
<title>4</title>
<ellipse fill="lightblue" stroke="black" cx="55.5" cy="-16.26" rx="16.03" ry="16.03"/>
<text text-anchor="middle" x="55.5" y="-14.06" font-family="Times,serif" font-size="9.00">4</text>
</g>
<!-- 1&#45;&gt;4 -->
<g id="edge1" class="edge">
<title>1&#45;&gt;4</title>
<path fill="none" stroke="green" stroke-width="0.34" d="M12.69,-144.29C15.06,-129.17 20.99,-95.54 30.5,-68.53 33.93,-58.79 38.71,-48.48 43.18,-39.67"/>
<polygon fill="green" stroke="green" stroke-width="0.34" points="46.28,-41.3 47.82,-30.82 40.08,-38.05 46.28,-41.3"/>
</g>
<!-- 5 -->
<g id="node5" class="node">
<title>5</title>
<ellipse fill="white" stroke="black" cx="55.5" cy="-84.79" rx="16.03" ry="16.03"/>
<text text-anchor="middle" x="55.5" y="-82.59" font-family="Times,serif" font-size="9.00">5</text>
</g>
<!-- 1&#45;&gt;5 -->
<g id="edge4" class="edge">
<title>1&#45;&gt;5</title>
<path fill="none" stroke="green" stroke-width="0.35" d="M16.9,-144.16C22.88,-135.11 32.78,-120.15 41.05,-107.63"/>
<polygon fill="green" stroke="green" stroke-width="0.35" points="44.12,-109.34 46.71,-99.07 38.28,-105.48 44.12,-109.34"/>
</g>
<!-- 2 -->
<g id="node2" class="node">
<title>2</title>
<polygon fill="lightgray" stroke="black" points="69,-223.58 46,-223.58 46,-205.58 69,-205.58 69,-223.58"/>
<text text-anchor="middle" x="57.5" y="-212.38" font-family="Times,serif" font-size="9.00">2</text>
</g>
<!-- 6 -->
<g id="node6" class="node">
<title>6</title>
<ellipse fill="white" stroke="black" cx="57.5" cy="-153.32" rx="16.03" ry="16.03"/>
<text text-anchor="middle" x="57.5" y="-151.12" font-family="Times,serif" font-size="9.00">6</text>
</g>
<!-- 2&#45;&gt;6 -->
<g id="edge5" class="edge">
<title>2&#45;&gt;6</title>
<path fill="none" stroke="green" stroke-width="1.02" d="M57.5,-205.34C57.5,-198.76 57.5,-189.16 57.5,-180.06"/>
<polygon fill="green" stroke="green" stroke-width="1.02" points="61,-179.81 57.5,-169.81 54,-179.81 61,-179.81"/>
</g>
<!-- 3 -->
<g id="node3" class="node">
<title>3</title>
<polygon fill="lightgray" stroke="black" points="113,-93.79 90,-93.79 90,-75.79 113,-75.79 113,-93.79"/>
<text text-anchor="middle" x="101.5" y="-82.59" font-family="Times,serif" font-size="9.00">3</text>
</g>
<!-- 3&#45;&gt;4 -->
<g id="edge2" class="edge">
<title>3&#45;&gt;4</title>
<path fill="none" stroke="green" stroke-width="0.83" d="M95.86,-75.63C89.53,-66.48 79,-51.25 70.28,-38.64"/>
<polygon fill="green" stroke="green" stroke-width="0.83" points="72.91,-36.29 64.34,-30.05 67.15,-40.27 72.91,-36.29"/>
</g>
<!-- 5&#45;&gt;4 -->
<g id="edge3" class="edge">
<title>5&#45;&gt;4</title>
<path fill="none" stroke="green" stroke-width="0.76" d="M55.5,-68.36C55.5,-60.72 55.5,-51.3 55.5,-42.63"/>
<polygon fill="green" stroke="green" stroke-width="0.76" points="59,-42.61 55.5,-32.61 52,-42.61 59,-42.61"/>
</g>
<!-- 6&#45;&gt;5 -->
<g id="edge6" class="edge">
<title>6&#45;&gt;5</title>
<path fill="none" stroke="green" stroke-width="1.04" d="M57.04,-136.89C56.81,-129.25 56.52,-119.82 56.26,-111.16"/>
<polygon fill="green" stroke="green" stroke-width="1.04" points="59.76,-111.03 55.96,-101.14 52.76,-111.24 59.76,-111.03"/>
</g>
</g>
</svg>
