<?xml version="1.0" encoding="UTF-8" standalone="no"?>
<!DOCTYPE svg PUBLIC "-//W3C//DTD SVG 1.1//EN"
 "http://www.w3.org/Graphics/SVG/1.1/DTD/svg11.dtd">
<!-- Generated by graphviz version 2.43.0 (0)
 -->
<!-- Title: %3 Pages: 1 -->
<svg width="133pt" height="163pt"
 viewBox="0.00 0.00 132.76 163.05" xmlns="http://www.w3.org/2000/svg" xmlns:xlink="http://www.w3.org/1999/xlink">
<g id="graph0" class="graph" transform="scale(1 1) rotate(0) translate(4 159.05)">
<title>%3</title>
<polygon fill="white" stroke="transparent" points="-4,4 -4,-159.05 128.76,-159.05 128.76,4 -4,4"/>
<!-- 1 -->
<g id="node1" class="node">
<title>1</title>
<polygon fill="lightgray" stroke="black" points="73.76,-155.05 50.76,-155.05 50.76,-137.05 73.76,-137.05 73.76,-155.05"/>
<text text-anchor="middle" x="62.26" y="-143.85" font-family="Times,serif" font-size="9.00">1</text>
</g>
<!-- 5 -->
<g id="node5" class="node">
<title>5</title>
<ellipse fill="white" stroke="black" cx="16.26" cy="-84.79" rx="16.03" ry="16.03"/>
<text text-anchor="middle" x="16.26" y="-82.59" font-family="Times,serif" font-size="9.00">5</text>
</g>
<!-- 1&#45;&gt;5 -->
<g id="edge4" class="edge">
<title>1&#45;&gt;5</title>
<path fill="none" stroke="green" stroke-width="0.55" d="M55.87,-136.81C49.71,-128.88 40.16,-116.58 31.98,-106.04"/>
<polygon fill="green" stroke="green" stroke-width="0.55" points="34.7,-103.83 25.8,-98.08 29.17,-108.12 34.7,-103.83"/>
</g>
<!-- 7 -->
<g id="node6" class="node">
<title>7</title>
<ellipse fill="white" stroke="black" cx="67.26" cy="-84.79" rx="16.03" ry="16.03"/>
<text text-anchor="middle" x="67.26" y="-82.59" font-family="Times,serif" font-size="9.00">7</text>
</g>
<!-- 1&#45;&gt;7 -->
<g id="edge5" class="edge">
<title>1&#45;&gt;7</title>
<path fill="none" stroke="green" stroke-width="0.75" d="M62.96,-136.81C63.51,-130.23 64.32,-120.63 65.09,-111.53"/>
<polygon fill="green" stroke="green" stroke-width="0.75" points="68.6,-111.54 65.96,-101.28 61.63,-110.95 68.6,-111.54"/>
</g>
<!-- 2 -->
<g id="node2" class="node">
<title>2</title>
<polygon fill="lightgray" stroke="black" points="27.76,-155.05 4.76,-155.05 4.76,-137.05 27.76,-137.05 27.76,-155.05"/>
<text text-anchor="middle" x="16.26" y="-143.85" font-family="Times,serif" font-size="9.00">2</text>
</g>
<!-- 2&#45;&gt;5 -->
<g id="edge2" class="edge">
<title>2&#45;&gt;5</title>
<path fill="none" stroke="green" stroke-width="0.33" d="M16.26,-136.81C16.26,-130.23 16.26,-120.63 16.26,-111.53"/>
<polygon fill="green" stroke="green" stroke-width="0.33" points="19.76,-111.28 16.26,-101.28 12.76,-111.28 19.76,-111.28"/>
</g>
<!-- 3 -->
<g id="node3" class="node">
<title>3</title>
<polygon fill="lightgray" stroke="black" points="124.76,-93.79 101.76,-93.79 101.76,-75.79 124.76,-75.79 124.76,-93.79"/>
<text text-anchor="middle" x="113.26" y="-82.59" font-family="Times,serif" font-size="9.00">3</text>
</g>
<!-- 4 -->
<g id="node4" class="node">
<title>4</title>
<ellipse fill="lightblue" stroke="black" cx="67.26" cy="-16.26" rx="16.03" ry="16.03"/>
<text text-anchor="middle" x="67.26" y="-14.06" font-family="Times,serif" font-size="9.00">4</text>
</g>
<!-- 3&#45;&gt;4 -->
<g id="edge1" class="edge">
<title>3&#45;&gt;4</title>
<path fill="none" stroke="green" stroke-width="0.23" d="M107.62,-75.63C101.29,-66.48 90.76,-51.25 82.05,-38.64"/>
<polygon fill="green" stroke="green" stroke-width="0.23" points="84.67,-36.29 76.11,-30.05 78.91,-40.27 84.67,-36.29"/>
</g>
<!-- 5&#45;&gt;4 -->
<g id="edge3" class="edge">
<title>5&#45;&gt;4</title>
<path fill="none" stroke="green" stroke-width="0.86" d="M25.86,-71.28C33.05,-61.89 43.06,-48.84 51.43,-37.91"/>
<polygon fill="green" stroke="green" stroke-width="0.86" points="54.41,-39.79 57.71,-29.72 48.85,-35.53 54.41,-39.79"/>
</g>
<!-- 7&#45;&gt;4 -->
<g id="edge6" class="edge">
<title>7&#45;&gt;4</title>
<path fill="none" stroke="green" stroke-width="0.88" d="M67.26,-68.36C67.26,-60.72 67.26,-51.3 67.26,-42.63"/>
<polygon fill="green" stroke="green" stroke-width="0.88" points="70.76,-42.61 67.26,-32.61 63.76,-42.61 70.76,-42.61"/>
</g>
</g>
</svg>
