<?xml version="1.0" encoding="UTF-8" standalone="no"?>
<!DOCTYPE svg PUBLIC "-//W3C//DTD SVG 1.1//EN"
 "http://www.w3.org/Graphics/SVG/1.1/DTD/svg11.dtd">
<!-- Generated by graphviz version 2.43.0 (0)
 -->
<!-- Title: %3 Pages: 1 -->
<svg width="99pt" height="232pt"
 viewBox="0.00 0.00 98.76 231.58" xmlns="http://www.w3.org/2000/svg" xmlns:xlink="http://www.w3.org/1999/xlink">
<g id="graph0" class="graph" transform="scale(1 1) rotate(0) translate(4 227.58)">
<title>%3</title>
<polygon fill="white" stroke="transparent" points="-4,4 -4,-227.58 94.76,-227.58 94.76,4 -4,4"/>
<!-- 1 -->
<g id="node1" class="node">
<title>1</title>
<polygon fill="lightgray" stroke="black" points="40,-162.32 17,-162.32 17,-144.32 40,-144.32 40,-162.32"/>
<text text-anchor="middle" x="28.5" y="-151.12" font-family="Times,serif" font-size="9.00">1</text>
</g>
<!-- 4 -->
<g id="node4" class="node">
<title>4</title>
<ellipse fill="lightblue" stroke="black" cx="27.5" cy="-16.26" rx="16.03" ry="16.03"/>
<text text-anchor="middle" x="27.5" y="-14.06" font-family="Times,serif" font-size="9.00">4</text>
</g>
<!-- 1&#45;&gt;4 -->
<g id="edge1" class="edge">
<title>1&#45;&gt;4</title>
<path fill="none" stroke="green" stroke-width="0.23" d="M28.44,-144.27C28.3,-124.67 27.92,-73.74 27.69,-42.65"/>
<polygon fill="green" stroke="green" stroke-width="0.23" points="31.19,-42.54 27.61,-32.57 24.19,-42.6 31.19,-42.54"/>
</g>
<!-- 6 -->
<g id="node6" class="node">
<title>6</title>
<ellipse fill="white" stroke="black" cx="71.5" cy="-84.79" rx="16.03" ry="16.03"/>
<text text-anchor="middle" x="71.5" y="-82.59" font-family="Times,serif" font-size="9.00">6</text>
</g>
<!-- 1&#45;&gt;6 -->
<g id="edge7" class="edge">
<title>1&#45;&gt;6</title>
<path fill="none" stroke="green" stroke-width="0.1" d="M33.77,-144.16C39.62,-135.11 49.29,-120.15 57.38,-107.63"/>
<polygon fill="green" stroke="green" stroke-width="0.1" points="60.43,-109.37 62.91,-99.07 54.55,-105.57 60.43,-109.37"/>
</g>
<!-- 2 -->
<g id="node2" class="node">
<title>2</title>
<polygon fill="lightgray" stroke="black" points="86,-223.58 63,-223.58 63,-205.58 86,-205.58 86,-223.58"/>
<text text-anchor="middle" x="74.5" y="-212.38" font-family="Times,serif" font-size="9.00">2</text>
</g>
<!-- 5 -->
<g id="node5" class="node">
<title>5</title>
<ellipse fill="white" stroke="black" cx="74.5" cy="-153.32" rx="16.03" ry="16.03"/>
<text text-anchor="middle" x="74.5" y="-151.12" font-family="Times,serif" font-size="9.00">5</text>
</g>
<!-- 2&#45;&gt;5 -->
<g id="edge3" class="edge">
<title>2&#45;&gt;5</title>
<path fill="none" stroke="green" stroke-width="0.55" d="M74.5,-205.34C74.5,-198.76 74.5,-189.16 74.5,-180.06"/>
<polygon fill="green" stroke="green" stroke-width="0.55" points="78,-179.81 74.5,-169.81 71,-179.81 78,-179.81"/>
</g>
<!-- 3 -->
<g id="node3" class="node">
<title>3</title>
<polygon fill="lightgray" stroke="black" points="23,-223.58 0,-223.58 0,-205.58 23,-205.58 23,-223.58"/>
<text text-anchor="middle" x="11.5" y="-212.38" font-family="Times,serif" font-size="9.00">3</text>
</g>
<!-- 3&#45;&gt;4 -->
<g id="edge2" class="edge">
<title>3&#45;&gt;4</title>
<path fill="none" stroke="green" stroke-width="1.04" d="M10.54,-205.49C9.55,-196.67 8.07,-182.15 7.5,-169.58 6.84,-155.14 6.31,-151.46 7.5,-137.05 10.23,-104.07 17.13,-66.5 22.06,-42.37"/>
<polygon fill="green" stroke="green" stroke-width="1.04" points="25.55,-42.8 24.17,-32.29 18.7,-41.36 25.55,-42.8"/>
</g>
<!-- 3&#45;&gt;5 -->
<g id="edge6" class="edge">
<title>3&#45;&gt;5</title>
<path fill="none" stroke="green" stroke-width="0.61" d="M20.26,-205.34C29.27,-196.86 43.6,-183.39 55.26,-172.41"/>
<polygon fill="green" stroke="green" stroke-width="0.61" points="57.93,-174.71 62.82,-165.31 53.13,-169.61 57.93,-174.71"/>
</g>
<!-- 5&#45;&gt;6 -->
<g id="edge4" class="edge">
<title>5&#45;&gt;6</title>
<path fill="none" stroke="green" stroke-width="0.14" d="M73.8,-136.89C73.46,-129.25 73.03,-119.82 72.64,-111.16"/>
<polygon fill="green" stroke="green" stroke-width="0.14" points="76.14,-110.97 72.19,-101.14 69.15,-111.28 76.14,-110.97"/>
</g>
<!-- 6&#45;&gt;4 -->
<g id="edge5" class="edge">
<title>6&#45;&gt;4</title>
<path fill="none" stroke="green" stroke-width="0.38" d="M62.81,-70.65C56.84,-61.63 48.78,-49.44 41.87,-38.99"/>
<polygon fill="green" stroke="green" stroke-width="0.38" points="44.61,-36.79 36.17,-30.38 38.77,-40.65 44.61,-36.79"/>
</g>
</g>
</svg>
