<?xml version="1.0" encoding="UTF-8" standalone="no"?>
<!DOCTYPE svg PUBLIC "-//W3C//DTD SVG 1.1//EN"
 "http://www.w3.org/Graphics/SVG/1.1/DTD/svg11.dtd">
<!-- Generated by graphviz version 2.43.0 (0)
 -->
<!-- Title: %3 Pages: 1 -->
<svg width="117pt" height="232pt"
 viewBox="0.00 0.00 117.00 231.58" xmlns="http://www.w3.org/2000/svg" xmlns:xlink="http://www.w3.org/1999/xlink">
<g id="graph0" class="graph" transform="scale(1 1) rotate(0) translate(4 227.58)">
<title>%3</title>
<polygon fill="white" stroke="transparent" points="-4,4 -4,-227.58 113,-227.58 113,4 -4,4"/>
<!-- 1 -->
<g id="node1" class="node">
<title>1</title>
<polygon fill="lightgray" stroke="black" points="23,-223.58 0,-223.58 0,-205.58 23,-205.58 23,-223.58"/>
<text text-anchor="middle" x="11.5" y="-212.38" font-family="Times,serif" font-size="9.00">1</text>
</g>
<!-- 4 -->
<g id="node4" class="node">
<title>4</title>
<ellipse fill="lightblue" stroke="black" cx="36.5" cy="-16.26" rx="16.03" ry="16.03"/>
<text text-anchor="middle" x="36.5" y="-14.06" font-family="Times,serif" font-size="9.00">4</text>
</g>
<!-- 1&#45;&gt;4 -->
<g id="edge1" class="edge">
<title>1&#45;&gt;4</title>
<path fill="none" stroke="green" stroke-width="0.83" d="M10.26,-205.58C7.08,-183.42 -0.28,-119.57 11.5,-68.53 13.82,-58.47 18.4,-48.1 23.01,-39.34"/>
<polygon fill="green" stroke="green" stroke-width="0.83" points="26.1,-40.99 27.92,-30.56 19.99,-37.58 26.1,-40.99"/>
</g>
<!-- 5 -->
<g id="node5" class="node">
<title>5</title>
<ellipse fill="white" stroke="black" cx="55.5" cy="-153.32" rx="16.03" ry="16.03"/>
<text text-anchor="middle" x="55.5" y="-151.12" font-family="Times,serif" font-size="9.00">5</text>
</g>
<!-- 1&#45;&gt;5 -->
<g id="edge8" class="edge">
<title>1&#45;&gt;5</title>
<path fill="none" stroke="green" stroke-width="0.7" d="M17.62,-205.34C23.37,-197.59 32.23,-185.65 39.94,-175.27"/>
<polygon fill="green" stroke="green" stroke-width="0.7" points="42.9,-177.16 46.05,-167.05 37.28,-172.99 42.9,-177.16"/>
</g>
<!-- 6 -->
<g id="node6" class="node">
<title>6</title>
<ellipse fill="white" stroke="black" cx="36.5" cy="-84.79" rx="16.03" ry="16.03"/>
<text text-anchor="middle" x="36.5" y="-82.59" font-family="Times,serif" font-size="9.00">6</text>
</g>
<!-- 1&#45;&gt;6 -->
<g id="edge7" class="edge">
<title>1&#45;&gt;6</title>
<path fill="none" stroke="green" stroke-width="0.87" d="M13.14,-205.2C16.84,-186.3 25.93,-139.8 31.62,-110.71"/>
<polygon fill="green" stroke="green" stroke-width="0.87" points="35.06,-111.36 33.55,-100.87 28.19,-110.01 35.06,-111.36"/>
</g>
<!-- 2 -->
<g id="node2" class="node">
<title>2</title>
<polygon fill="lightgray" stroke="black" points="67,-223.58 44,-223.58 44,-205.58 67,-205.58 67,-223.58"/>
<text text-anchor="middle" x="55.5" y="-212.38" font-family="Times,serif" font-size="9.00">2</text>
</g>
<!-- 2&#45;&gt;5 -->
<g id="edge3" class="edge">
<title>2&#45;&gt;5</title>
<path fill="none" stroke="green" stroke-width="0.45" d="M55.5,-205.34C55.5,-198.76 55.5,-189.16 55.5,-180.06"/>
<polygon fill="green" stroke="green" stroke-width="0.45" points="59,-179.81 55.5,-169.81 52,-179.81 59,-179.81"/>
</g>
<!-- 3 -->
<g id="node3" class="node">
<title>3</title>
<polygon fill="lightgray" stroke="black" points="109,-223.58 86,-223.58 86,-205.58 109,-205.58 109,-223.58"/>
<text text-anchor="middle" x="97.5" y="-212.38" font-family="Times,serif" font-size="9.00">3</text>
</g>
<!-- 3&#45;&gt;4 -->
<g id="edge2" class="edge">
<title>3&#45;&gt;4</title>
<path fill="none" stroke="green" stroke-width="1.06" d="M96.19,-205.52C92.44,-183.21 80.62,-119 61.5,-68.53 57.88,-58.97 53.12,-48.79 48.72,-40.05"/>
<polygon fill="green" stroke="green" stroke-width="1.06" points="51.69,-38.17 43.99,-30.88 45.47,-41.38 51.69,-38.17"/>
</g>
<!-- 3&#45;&gt;5 -->
<g id="edge6" class="edge">
<title>3&#45;&gt;5</title>
<path fill="none" stroke="green" stroke-width="0.61" d="M91.66,-205.34C86.17,-197.59 77.71,-185.65 70.35,-175.27"/>
<polygon fill="green" stroke="green" stroke-width="0.61" points="73.16,-173.18 64.52,-167.05 67.45,-177.23 73.16,-173.18"/>
</g>
<!-- 5&#45;&gt;6 -->
<g id="edge4" class="edge">
<title>5&#45;&gt;6</title>
<path fill="none" stroke="green" stroke-width="0.5" d="M51.28,-137.55C49,-129.54 46.11,-119.43 43.49,-110.28"/>
<polygon fill="green" stroke="green" stroke-width="0.5" points="46.82,-109.17 40.7,-100.51 40.09,-111.09 46.82,-109.17"/>
</g>
<!-- 6&#45;&gt;4 -->
<g id="edge5" class="edge">
<title>6&#45;&gt;4</title>
<path fill="none" stroke="green" stroke-width="0.43" d="M36.5,-68.36C36.5,-60.72 36.5,-51.3 36.5,-42.63"/>
<polygon fill="green" stroke="green" stroke-width="0.43" points="40,-42.61 36.5,-32.61 33,-42.61 40,-42.61"/>
</g>
</g>
</svg>
