<?xml version="1.0" encoding="UTF-8" standalone="no"?>
<!DOCTYPE svg PUBLIC "-//W3C//DTD SVG 1.1//EN"
 "http://www.w3.org/Graphics/SVG/1.1/DTD/svg11.dtd">
<!-- Generated by graphviz version 2.43.0 (0)
 -->
<!-- Title: %3 Pages: 1 -->
<svg width="141pt" height="163pt"
 viewBox="0.00 0.00 140.70 163.05" xmlns="http://www.w3.org/2000/svg" xmlns:xlink="http://www.w3.org/1999/xlink">
<g id="graph0" class="graph" transform="scale(1 1) rotate(0) translate(4 159.05)">
<title>%3</title>
<polygon fill="white" stroke="transparent" points="-4,4 -4,-159.05 136.7,-159.05 136.7,4 -4,4"/>
<!-- 1 -->
<g id="node1" class="node">
<title>1</title>
<polygon fill="lightgray" stroke="black" points="39.7,-155.05 16.7,-155.05 16.7,-137.05 39.7,-137.05 39.7,-155.05"/>
<text text-anchor="middle" x="28.2" y="-143.85" font-family="Times,serif" font-size="9.00">1</text>
</g>
<!-- 4 -->
<g id="node4" class="node">
<title>4</title>
<ellipse fill="lightblue" stroke="black" cx="53.2" cy="-16.26" rx="16.03" ry="16.03"/>
<text text-anchor="middle" x="53.2" y="-14.06" font-family="Times,serif" font-size="9.00">4</text>
</g>
<!-- 1&#45;&gt;4 -->
<g id="edge1" class="edge">
<title>1&#45;&gt;4</title>
<path fill="none" stroke="green" stroke-width="0.37" d="M21.75,-136.88C11.42,-122.73 -6.7,-92.87 3.2,-68.53 9.1,-54.03 21.29,-41.39 32.16,-32.29"/>
<polygon fill="green" stroke="green" stroke-width="0.37" points="34.39,-34.99 40.08,-26.05 30.06,-29.49 34.39,-34.99"/>
</g>
<!-- 5 -->
<g id="node5" class="node">
<title>5</title>
<ellipse fill="white" stroke="black" cx="79.2" cy="-84.79" rx="16.03" ry="16.03"/>
<text text-anchor="middle" x="79.2" y="-82.59" font-family="Times,serif" font-size="9.00">5</text>
</g>
<!-- 1&#45;&gt;5 -->
<g id="edge5" class="edge">
<title>1&#45;&gt;5</title>
<path fill="none" stroke="green" stroke-width="0.44" d="M35.29,-136.81C42.27,-128.7 53.19,-116.02 62.39,-105.32"/>
<polygon fill="green" stroke="green" stroke-width="0.44" points="65.13,-107.5 69,-97.64 59.83,-102.94 65.13,-107.5"/>
</g>
<!-- 6 -->
<g id="node6" class="node">
<title>6</title>
<ellipse fill="white" stroke="black" cx="28.2" cy="-84.79" rx="16.03" ry="16.03"/>
<text text-anchor="middle" x="28.2" y="-82.59" font-family="Times,serif" font-size="9.00">6</text>
</g>
<!-- 1&#45;&gt;6 -->
<g id="edge8" class="edge">
<title>1&#45;&gt;6</title>
<path fill="none" stroke="green" stroke-width="0.91" d="M28.2,-136.81C28.2,-130.23 28.2,-120.63 28.2,-111.53"/>
<polygon fill="green" stroke="green" stroke-width="0.91" points="31.7,-111.28 28.2,-101.28 24.7,-111.28 31.7,-111.28"/>
</g>
<!-- 2 -->
<g id="node2" class="node">
<title>2</title>
<polygon fill="lightgray" stroke="black" points="90.7,-155.05 67.7,-155.05 67.7,-137.05 90.7,-137.05 90.7,-155.05"/>
<text text-anchor="middle" x="79.2" y="-143.85" font-family="Times,serif" font-size="9.00">2</text>
</g>
<!-- 2&#45;&gt;5 -->
<g id="edge3" class="edge">
<title>2&#45;&gt;5</title>
<path fill="none" stroke="green" stroke-width="0.24" d="M79.2,-136.81C79.2,-130.23 79.2,-120.63 79.2,-111.53"/>
<polygon fill="green" stroke="green" stroke-width="0.24" points="82.7,-111.28 79.2,-101.28 75.7,-111.28 82.7,-111.28"/>
</g>
<!-- 3 -->
<g id="node3" class="node">
<title>3</title>
<polygon fill="lightgray" stroke="black" points="132.7,-155.05 109.7,-155.05 109.7,-137.05 132.7,-137.05 132.7,-155.05"/>
<text text-anchor="middle" x="121.2" y="-143.85" font-family="Times,serif" font-size="9.00">3</text>
</g>
<!-- 3&#45;&gt;4 -->
<g id="edge2" class="edge">
<title>3&#45;&gt;4</title>
<path fill="none" stroke="green" stroke-width="0.35" d="M120.87,-136.94C119.97,-122.38 116.61,-91.21 104.2,-68.53 96.78,-54.97 84.71,-42.6 74.17,-33.41"/>
<polygon fill="green" stroke="green" stroke-width="0.35" points="76.09,-30.45 66.16,-26.75 71.62,-35.84 76.09,-30.45"/>
</g>
<!-- 3&#45;&gt;5 -->
<g id="edge7" class="edge">
<title>3&#45;&gt;5</title>
<path fill="none" stroke="green" stroke-width="0.7" d="M115.36,-136.81C109.87,-129.06 101.41,-117.13 94.05,-106.75"/>
<polygon fill="green" stroke="green" stroke-width="0.7" points="96.86,-104.66 88.22,-98.52 91.15,-108.7 96.86,-104.66"/>
</g>
<!-- 5&#45;&gt;4 -->
<g id="edge4" class="edge">
<title>5&#45;&gt;4</title>
<path fill="none" stroke="green" stroke-width="0.53" d="M73.56,-69.36C70.32,-61.07 66.18,-50.47 62.47,-40.99"/>
<polygon fill="green" stroke="green" stroke-width="0.53" points="65.73,-39.71 58.83,-31.67 59.21,-42.26 65.73,-39.71"/>
</g>
<!-- 6&#45;&gt;4 -->
<g id="edge6" class="edge">
<title>6&#45;&gt;4</title>
<path fill="none" stroke="green" stroke-width="0.96" d="M33.62,-69.36C36.7,-61.16 40.64,-50.69 44.17,-41.29"/>
<polygon fill="green" stroke="green" stroke-width="0.96" points="47.54,-42.26 47.79,-31.67 40.99,-39.8 47.54,-42.26"/>
</g>
</g>
</svg>
