<?xml version="1.0" encoding="UTF-8" standalone="no"?>
<!DOCTYPE svg PUBLIC "-//W3C//DTD SVG 1.1//EN"
 "http://www.w3.org/Graphics/SVG/1.1/DTD/svg11.dtd">
<!-- Generated by graphviz version 2.43.0 (0)
 -->
<!-- Title: %3 Pages: 1 -->
<svg width="128pt" height="163pt"
 viewBox="0.00 0.00 127.76 163.05" xmlns="http://www.w3.org/2000/svg" xmlns:xlink="http://www.w3.org/1999/xlink">
<g id="graph0" class="graph" transform="scale(1 1) rotate(0) translate(4 159.05)">
<title>%3</title>
<polygon fill="white" stroke="transparent" points="-4,4 -4,-159.05 123.76,-159.05 123.76,4 -4,4"/>
<!-- 1 -->
<g id="node1" class="node">
<title>1</title>
<polygon fill="lightgray" stroke="black" points="78.76,-155.05 55.76,-155.05 55.76,-137.05 78.76,-137.05 78.76,-155.05"/>
<text text-anchor="middle" x="67.26" y="-143.85" font-family="Times,serif" font-size="9.00">1</text>
</g>
<!-- 4 -->
<g id="node4" class="node">
<title>4</title>
<ellipse fill="lightblue" stroke="black" cx="16.26" cy="-84.79" rx="16.03" ry="16.03"/>
<text text-anchor="middle" x="16.26" y="-82.59" font-family="Times,serif" font-size="9.00">4</text>
</g>
<!-- 1&#45;&gt;4 -->
<g id="edge1" class="edge">
<title>1&#45;&gt;4</title>
<path fill="none" stroke="green" stroke-width="0.25" d="M60.17,-136.81C53.19,-128.7 42.27,-116.02 33.07,-105.32"/>
<polygon fill="green" stroke="green" stroke-width="0.25" points="35.64,-102.94 26.46,-97.64 30.33,-107.5 35.64,-102.94"/>
</g>
<!-- 5 -->
<g id="node5" class="node">
<title>5</title>
<ellipse fill="white" stroke="black" cx="67.26" cy="-84.79" rx="16.03" ry="16.03"/>
<text text-anchor="middle" x="67.26" y="-82.59" font-family="Times,serif" font-size="9.00">5</text>
</g>
<!-- 1&#45;&gt;5 -->
<g id="edge4" class="edge">
<title>1&#45;&gt;5</title>
<path fill="none" stroke="green" stroke-width="0.85" d="M67.26,-136.81C67.26,-130.23 67.26,-120.63 67.26,-111.53"/>
<polygon fill="green" stroke="green" stroke-width="0.85" points="70.76,-111.28 67.26,-101.28 63.76,-111.28 70.76,-111.28"/>
</g>
<!-- 6 -->
<g id="node6" class="node">
<title>6</title>
<ellipse fill="white" stroke="black" cx="89.26" cy="-16.26" rx="16.03" ry="16.03"/>
<text text-anchor="middle" x="89.26" y="-14.06" font-family="Times,serif" font-size="9.00">6</text>
</g>
<!-- 1&#45;&gt;6 -->
<g id="edge6" class="edge">
<title>1&#45;&gt;6</title>
<path fill="none" stroke="green" stroke-width="0.84" d="M73.66,-136.87C79.8,-128.43 88.67,-114.64 92.26,-101.05 97.33,-81.89 96.16,-59.41 93.95,-42.56"/>
<polygon fill="green" stroke="green" stroke-width="0.84" points="97.37,-41.75 92.4,-32.39 90.45,-42.8 97.37,-41.75"/>
</g>
<!-- 2 -->
<g id="node2" class="node">
<title>2</title>
<polygon fill="lightgray" stroke="black" points="119.76,-155.05 96.76,-155.05 96.76,-137.05 119.76,-137.05 119.76,-155.05"/>
<text text-anchor="middle" x="108.26" y="-143.85" font-family="Times,serif" font-size="9.00">2</text>
</g>
<!-- 3 -->
<g id="node3" class="node">
<title>3</title>
<polygon fill="lightgray" stroke="black" points="32.76,-155.05 9.76,-155.05 9.76,-137.05 32.76,-137.05 32.76,-155.05"/>
<text text-anchor="middle" x="21.26" y="-143.85" font-family="Times,serif" font-size="9.00">3</text>
</g>
<!-- 3&#45;&gt;4 -->
<g id="edge2" class="edge">
<title>3&#45;&gt;4</title>
<path fill="none" stroke="green" stroke-width="1.03" d="M20.57,-136.81C20.01,-130.23 19.2,-120.63 18.43,-111.53"/>
<polygon fill="green" stroke="green" stroke-width="1.03" points="21.9,-110.95 17.57,-101.28 14.92,-111.54 21.9,-110.95"/>
</g>
<!-- 3&#45;&gt;5 -->
<g id="edge5" class="edge">
<title>3&#45;&gt;5</title>
<path fill="none" stroke="green" stroke-width="0.14" d="M27.66,-136.81C33.82,-128.88 43.37,-116.58 51.55,-106.04"/>
<polygon fill="green" stroke="green" stroke-width="0.14" points="54.36,-108.12 57.73,-98.08 48.83,-103.83 54.36,-108.12"/>
</g>
<!-- 5&#45;&gt;6 -->
<g id="edge3" class="edge">
<title>5&#45;&gt;6</title>
<path fill="none" stroke="green" stroke-width="0.23" d="M72.15,-69.03C74.79,-61.02 78.14,-50.91 81.16,-41.75"/>
<polygon fill="green" stroke="green" stroke-width="0.23" points="84.58,-42.58 84.39,-31.99 77.93,-40.38 84.58,-42.58"/>
</g>
</g>
</svg>
