<?xml version="1.0" encoding="UTF-8" standalone="no"?>
<!DOCTYPE svg PUBLIC "-//W3C//DTD SVG 1.1//EN"
 "http://www.w3.org/Graphics/SVG/1.1/DTD/svg11.dtd">
<!-- Generated by graphviz version 2.43.0 (0)
 -->
<!-- Title: %3 Pages: 1 -->
<svg width="119pt" height="163pt"
 viewBox="0.00 0.00 119.00 163.05" xmlns="http://www.w3.org/2000/svg" xmlns:xlink="http://www.w3.org/1999/xlink">
<g id="graph0" class="graph" transform="scale(1 1) rotate(0) translate(4 159.05)">
<title>%3</title>
<polygon fill="white" stroke="transparent" points="-4,4 -4,-159.05 115,-159.05 115,4 -4,4"/>
<!-- 1 -->
<g id="node1" class="node">
<title>1</title>
<polygon fill="lightgray" stroke="black" points="23,-155.05 0,-155.05 0,-137.05 23,-137.05 23,-155.05"/>
<text text-anchor="middle" x="11.5" y="-143.85" font-family="Times,serif" font-size="9.00">1</text>
</g>
<!-- 4 -->
<g id="node4" class="node">
<title>4</title>
<ellipse fill="lightblue" stroke="black" cx="53.5" cy="-16.26" rx="16.03" ry="16.03"/>
<text text-anchor="middle" x="53.5" y="-14.06" font-family="Times,serif" font-size="9.00">4</text>
</g>
<!-- 1&#45;&gt;4 -->
<g id="edge1" class="edge">
<title>1&#45;&gt;4</title>
<path fill="none" stroke="green" stroke-width="0.37" d="M12.67,-136.84C14.85,-122.63 20.06,-92.68 28.5,-68.53 31.91,-58.78 36.69,-48.47 41.15,-39.67"/>
<polygon fill="green" stroke="green" stroke-width="0.37" points="44.25,-41.29 45.8,-30.81 38.06,-38.04 44.25,-41.29"/>
</g>
<!-- 5 -->
<g id="node5" class="node">
<title>5</title>
<ellipse fill="white" stroke="black" cx="53.5" cy="-84.79" rx="16.03" ry="16.03"/>
<text text-anchor="middle" x="53.5" y="-82.59" font-family="Times,serif" font-size="9.00">5</text>
</g>
<!-- 1&#45;&gt;5 -->
<g id="edge5" class="edge">
<title>1&#45;&gt;5</title>
<path fill="none" stroke="green" stroke-width="0.44" d="M17.34,-136.81C22.83,-129.06 31.29,-117.13 38.65,-106.75"/>
<polygon fill="green" stroke="green" stroke-width="0.44" points="41.55,-108.7 44.48,-98.52 35.84,-104.66 41.55,-108.7"/>
</g>
<!-- 2 -->
<g id="node2" class="node">
<title>2</title>
<polygon fill="lightgray" stroke="black" points="65,-155.05 42,-155.05 42,-137.05 65,-137.05 65,-155.05"/>
<text text-anchor="middle" x="53.5" y="-143.85" font-family="Times,serif" font-size="9.00">2</text>
</g>
<!-- 2&#45;&gt;5 -->
<g id="edge3" class="edge">
<title>2&#45;&gt;5</title>
<path fill="none" stroke="green" stroke-width="0.24" d="M53.5,-136.81C53.5,-130.23 53.5,-120.63 53.5,-111.53"/>
<polygon fill="green" stroke="green" stroke-width="0.24" points="57,-111.28 53.5,-101.28 50,-111.28 57,-111.28"/>
</g>
<!-- 3 -->
<g id="node3" class="node">
<title>3</title>
<polygon fill="lightgray" stroke="black" points="111,-93.79 88,-93.79 88,-75.79 111,-75.79 111,-93.79"/>
<text text-anchor="middle" x="99.5" y="-82.59" font-family="Times,serif" font-size="9.00">3</text>
</g>
<!-- 3&#45;&gt;4 -->
<g id="edge2" class="edge">
<title>3&#45;&gt;4</title>
<path fill="none" stroke="green" stroke-width="0.35" d="M93.86,-75.63C87.53,-66.48 77,-51.25 68.28,-38.64"/>
<polygon fill="green" stroke="green" stroke-width="0.35" points="70.91,-36.29 62.34,-30.05 65.15,-40.27 70.91,-36.29"/>
</g>
<!-- 5&#45;&gt;4 -->
<g id="edge4" class="edge">
<title>5&#45;&gt;4</title>
<path fill="none" stroke="green" stroke-width="0.53" d="M53.5,-68.36C53.5,-60.72 53.5,-51.3 53.5,-42.63"/>
<polygon fill="green" stroke="green" stroke-width="0.53" points="57,-42.61 53.5,-32.61 50,-42.61 57,-42.61"/>
</g>
</g>
</svg>
