<?xml version="1.0" encoding="UTF-8" standalone="no"?>
<!DOCTYPE svg PUBLIC "-//W3C//DTD SVG 1.1//EN"
 "http://www.w3.org/Graphics/SVG/1.1/DTD/svg11.dtd">
<!-- Generated by graphviz version 2.43.0 (0)
 -->
<!-- Title: %3 Pages: 1 -->
<svg width="140pt" height="232pt"
 viewBox="0.00 0.00 140.00 231.58" xmlns="http://www.w3.org/2000/svg" xmlns:xlink="http://www.w3.org/1999/xlink">
<g id="graph0" class="graph" transform="scale(1 1) rotate(0) translate(4 227.58)">
<title>%3</title>
<polygon fill="white" stroke="transparent" points="-4,4 -4,-227.58 136,-227.58 136,4 -4,4"/>
<!-- 1 -->
<g id="node1" class="node">
<title>1</title>
<polygon fill="lightgray" stroke="black" points="23,-162.32 0,-162.32 0,-144.32 23,-144.32 23,-162.32"/>
<text text-anchor="middle" x="11.5" y="-151.12" font-family="Times,serif" font-size="9.00">1</text>
</g>
<!-- 4 -->
<g id="node4" class="node">
<title>4</title>
<ellipse fill="lightblue" stroke="black" cx="56.5" cy="-16.26" rx="16.03" ry="16.03"/>
<text text-anchor="middle" x="56.5" y="-14.06" font-family="Times,serif" font-size="9.00">4</text>
</g>
<!-- 1&#45;&gt;4 -->
<g id="edge1" class="edge">
<title>1&#45;&gt;4</title>
<path fill="none" stroke="green" stroke-width="0.39" d="M12.81,-144.29C15.41,-129.18 21.82,-95.56 31.5,-68.53 34.95,-58.91 39.67,-48.72 44.09,-39.98"/>
<polygon fill="green" stroke="green" stroke-width="0.39" points="47.34,-41.32 48.86,-30.83 41.14,-38.08 47.34,-41.32"/>
</g>
<!-- 6 -->
<g id="node6" class="node">
<title>6</title>
<ellipse fill="white" stroke="black" cx="56.5" cy="-84.79" rx="16.03" ry="16.03"/>
<text text-anchor="middle" x="56.5" y="-82.59" font-family="Times,serif" font-size="9.00">6</text>
</g>
<!-- 1&#45;&gt;6 -->
<g id="edge6" class="edge">
<title>1&#45;&gt;6</title>
<path fill="none" stroke="green" stroke-width="0.84" d="M17.02,-144.16C23.21,-135 33.51,-119.77 42.04,-107.17"/>
<polygon fill="green" stroke="green" stroke-width="0.84" points="45.15,-108.82 47.85,-98.58 39.35,-104.9 45.15,-108.82"/>
</g>
<!-- 2 -->
<g id="node2" class="node">
<title>2</title>
<polygon fill="lightgray" stroke="black" points="132,-223.58 109,-223.58 109,-205.58 132,-205.58 132,-223.58"/>
<text text-anchor="middle" x="120.5" y="-212.38" font-family="Times,serif" font-size="9.00">2</text>
</g>
<!-- 3 -->
<g id="node3" class="node">
<title>3</title>
<polygon fill="lightgray" stroke="black" points="91,-223.58 68,-223.58 68,-205.58 91,-205.58 91,-223.58"/>
<text text-anchor="middle" x="79.5" y="-212.38" font-family="Times,serif" font-size="9.00">3</text>
</g>
<!-- 3&#45;&gt;4 -->
<g id="edge2" class="edge">
<title>3&#45;&gt;4</title>
<path fill="none" stroke="green" stroke-width="0.53" d="M80.97,-205.57C84.74,-183.39 93.66,-119.48 81.5,-68.53 79.1,-58.48 74.51,-48.12 69.91,-39.35"/>
<polygon fill="green" stroke="green" stroke-width="0.53" points="72.94,-37.6 65.02,-30.57 66.83,-41.01 72.94,-37.6"/>
</g>
<!-- 5 -->
<g id="node5" class="node">
<title>5</title>
<ellipse fill="white" stroke="black" cx="57.5" cy="-153.32" rx="16.03" ry="16.03"/>
<text text-anchor="middle" x="57.5" y="-151.12" font-family="Times,serif" font-size="9.00">5</text>
</g>
<!-- 3&#45;&gt;5 -->
<g id="edge5" class="edge">
<title>3&#45;&gt;5</title>
<path fill="none" stroke="green" stroke-width="0.14" d="M76.44,-205.34C73.85,-198.35 69.99,-187.97 66.44,-178.39"/>
<polygon fill="green" stroke="green" stroke-width="0.14" points="69.66,-177.03 62.9,-168.87 63.1,-179.46 69.66,-177.03"/>
</g>
<!-- 5&#45;&gt;6 -->
<g id="edge3" class="edge">
<title>5&#45;&gt;6</title>
<path fill="none" stroke="green" stroke-width="0.23" d="M57.27,-136.89C57.15,-129.25 57.01,-119.82 56.88,-111.16"/>
<polygon fill="green" stroke="green" stroke-width="0.23" points="60.38,-111.08 56.73,-101.14 53.38,-111.19 60.38,-111.08"/>
</g>
<!-- 6&#45;&gt;4 -->
<g id="edge4" class="edge">
<title>6&#45;&gt;4</title>
<path fill="none" stroke="green" stroke-width="0.99" d="M56.5,-68.36C56.5,-60.72 56.5,-51.3 56.5,-42.63"/>
<polygon fill="green" stroke="green" stroke-width="0.99" points="60,-42.61 56.5,-32.61 53,-42.61 60,-42.61"/>
</g>
</g>
</svg>
